<svg viewBox="0 0 13 13" xmlns="http://www.w3.org/2000/svg"><g clip-path="url(#clip0)"><path d="M1.05 5.36C.47 5.36 0 5.87 0 6.5c0 .63.47 1.14 1.05 1.14.59 0 1.06-.51 1.06-1.14 0-.63-.47-1.14-1.06-1.14zm0-4.55C.47.81 0 1.32 0 1.95c0 .63.47 1.14 1.05 1.14.59 0 1.06-.51 1.06-1.14 0-.63-.47-1.14-1.06-1.14zm0 9.1c-.58 0-1.05.52-1.05 1.14 0 .62.48 1.14 1.05 1.14.58 0 1.06-.52 1.06-1.14 0-.62-.47-1.14-1.06-1.14zm2.11 1.9H13v-1.52H3.16v1.52zm0-4.55H13V5.74H3.16v1.52zm0-6.07v1.52H13V1.19H3.16z" /></g><defs><clipPath id="clip0"><path  d="M0 0h13v13H0z"/></clipPath></defs></svg>