<svg xmlns="http://www.w3.org/2000/svg" viewBox="0 0 16 16"><path d="M7.4 0c-.51.07-.7.3-.75.88-.02.17-.01.35.02.94.02.26 0 .35-.08.43-.06.05-.14.08-.35.12a2.2 2.2 0 00-.66.23c-.38.18-.66.3-.76.32l-.08.02-.04-.05-.27-.31c-.47-.54-.75-.77-1.01-.84-.3-.08-.56.05-.92.43-.56.6-.6.64-.68.8a.66.66 0 00-.07.31c0 .1.02.18.08.31.1.2.2.3.63.74l.4.4-.03.07c-.34.53-.54.95-.71 1.52-.07.24-.1.3-.16.34-.07.03-.2.04-.62.02-.69-.02-.9.02-1.1.19a.78.78 0 00-.22.48 9.74 9.74 0 000 1.16c.07.43.22.63.56.73.2.06.31.06.93.06h.58v.05c.14.48.47 1.21.68 1.48.17.22.2.27.15.37l-.34.34c-.4.37-.65.63-.72.74-.16.22-.2.44-.13.64.08.2.44.63.82.96.35.32.57.42.79.39.26-.05.5-.22.89-.66l.7-.74.2.08c.4.2.8.36 1.27.48.19.04.26.06.29.1a24.02 24.02 0 00-.03 1.68c.03.38.18.6.45.7.26.1.73.11 1.36.06.34-.03.45-.07.6-.21a.9.9 0 00.24-.55c.04-.27.04-.45-.01-1.15l-.03-.4v-.13l.03-.04c.03-.03.07-.05.17-.08a7.5 7.5 0 001.43-.57l.09-.05.11.13.82.89c.2.2.4.34.57.4.1.03.28.04.39.01.1-.02.25-.1.33-.18.16-.14.54-.48.67-.63.3-.3.42-.55.39-.78-.02-.13-.1-.29-.2-.43a4.74 4.74 0 00-.77-.74l-.21-.18c-.2-.17-.2-.2.05-.6a5.33 5.33 0 00.55-1.23c.04-.08.13-.14.26-.18.08-.02.43-.02.72 0 .44.05.61.05.8 0a.61.61 0 00.4-.3c.1-.18.13-.49.13-1.02 0-.49-.03-.7-.13-.91-.1-.2-.27-.31-.59-.36a4.82 4.82 0 00-.82 0h-.35c-.2.01-.24 0-.32-.07-.06-.06-.08-.11-.12-.3-.07-.3-.11-.4-.23-.61-.16-.3-.3-.6-.33-.69-.03-.12-.03-.23 0-.29l.31-.3c.5-.45.7-.7.77-.96a.87.87 0 000-.35c-.03-.1-.11-.25-.18-.35l-.58-.63c-.28-.3-.49-.41-.72-.41-.3 0-.57.19-1.1.78-.38.43-.42.47-.57.46-.09-.01-.18-.05-.35-.16a2.1 2.1 0 00-.59-.25c-.47-.14-.62-.2-.73-.3-.1-.09-.1-.08-.07-.47C9.36.87 9.3.5 9.05.25 8.88.1 8.73.04 8.33.02A9.6 9.6 0 007.4 0zm.9 5.73c.52.08.97.29 1.31.6.33.32.52.67.6 1.14.03.19.04.57 0 .76-.07.47-.25.83-.57 1.14a2 2 0 01-.57.4c-.74.37-1.75.34-2.46-.07a2.24 2.24 0 01-.64-.55 2.1 2.1 0 01-.4-1.29 2.05 2.05 0 01.68-1.57 2.5 2.5 0 012.04-.56z" /></svg>