<svg viewBox="0 0 16 16" xmlns="http://www.w3.org/2000/svg"><path d="M6.36 10.2H2.39l-.9 2.47H.22l3.62-9.48h1.1l3.62 9.48H7.26l-.9-2.48zm-3.6-1.04H6L4.37 4.73l-1.6 4.43zM13.98 12.67a2.53 2.53 0 01-.17-.75c-.56.59-1.22.88-2 .88-.7 0-1.27-.2-1.71-.59-.45-.4-.67-.9-.67-1.5 0-.73.28-1.3.84-1.7.56-.41 1.34-.61 2.35-.61h1.17v-.56c0-.42-.12-.75-.37-1-.26-.25-.63-.38-1.12-.38-.43 0-.79.11-1.08.33-.29.21-.43.48-.43.79H9.58c0-.36.12-.7.37-1.02.25-.33.59-.59 1.01-.78.43-.2.9-.29 1.41-.29.82 0 1.45.2 1.91.61.46.4.7.97.72 1.68v3.24c0 .65.08 1.16.25 1.54v.1h-1.27zm-2-.92c.38 0 .74-.1 1.08-.3.34-.19.58-.44.73-.76V9.25h-.94c-1.48 0-2.21.43-2.21 1.3 0 .37.12.67.37.88.26.21.58.32.97.32z" /></svg>